<?xml version="1.0" encoding="utf-8"?>
<!-- Generator: Adobe Illustrator 14.0.0, SVG Export Plug-In . SVG Version: 6.00 Build 43363)  -->
<!DOCTYPE svg PUBLIC "-//W3C//DTD SVG 1.1//EN" "http://www.w3.org/Graphics/SVG/1.1/DTD/svg11.dtd">
<svg version="1.1" id="Layer_1" xmlns="http://www.w3.org/2000/svg" xmlns:xlink="http://www.w3.org/1999/xlink" x="0px" y="0px"
	 width="30px" height="30px" viewBox="0 0 30 30" enable-background="new 0 0 30 30" xml:space="preserve">
<g>
	<rect fill="none" width="30" height="30"/>
	<path fill-rule="evenodd" clip-rule="evenodd" fill="#4F5D75" d="M26.4,28.032H3.6c-1.984,0-3.6-1.684-3.6-3.75V9.907
		c0-2.067,1.615-3.75,3.6-3.75H26.4c1.985,0,3.6,1.683,3.6,3.75v14.375C30,26.349,28.386,28.032,26.4,28.032z M28.8,9.907
		c0-1.378-1.075-2.5-2.399-2.5H3.6c-1.322,0-2.399,1.121-2.399,2.5v2.43h27.525v1.305H1.2v10.641c0,1.379,1.077,2.501,2.399,2.501
		H26.4c1.324,0,2.399-1.122,2.399-2.501V9.907z M25.188,21.102h-4.188c-0.33,0-0.598-0.281-0.598-0.626v-2.477
		c0-0.344,0.268-0.623,0.598-0.623h4.188c0.331,0,0.601,0.279,0.601,0.623v2.477C25.788,20.82,25.519,21.102,25.188,21.102z
		 M15.14,18.565H3.927c-0.315,0-0.568-0.266-0.568-0.594c0-0.325,0.253-0.591,0.568-0.591H15.14c0.314,0,0.569,0.266,0.569,0.591
		C15.709,18.3,15.454,18.565,15.14,18.565z M3.927,21.131H9.74c0.314,0,0.568,0.266,0.568,0.591c0,0.328-0.254,0.594-0.568,0.594
		H3.927c-0.315,0-0.568-0.266-0.568-0.594C3.358,21.396,3.611,21.131,3.927,21.131z"/>
</g>
</svg>
