<?xml version="1.0" encoding="utf-8"?>
<!-- Generator: Adobe Illustrator 14.0.0, SVG Export Plug-In . SVG Version: 6.00 Build 43363)  -->
<!DOCTYPE svg PUBLIC "-//W3C//DTD SVG 1.1//EN" "http://www.w3.org/Graphics/SVG/1.1/DTD/svg11.dtd">
<svg version="1.1" id="Layer_1" xmlns="http://www.w3.org/2000/svg" xmlns:xlink="http://www.w3.org/1999/xlink" x="0px" y="0px"
	 width="200px" height="60px" viewBox="0 0 200 60" enable-background="new 0 0 200 60" xml:space="preserve">
<g>
	<g>
		<g>
			<path fill="#FEA100" d="M27.675,25.624l-0.029-0.038l-2.94,4.406l3.862,5.723c0.109,0.164,0.221,0.321,0.336,0.477
				c2.588,3.479,7.02,4.943,11.228,3.672c4.444-1.348,7.316-5.22,7.316-9.863c0-4.646-2.872-8.519-7.321-9.864
				c-1.02-0.31-2.062-0.467-3.097-0.467c-3.425,0-6.507,1.682-8.462,4.615L27.675,25.624z M32.603,26.972
				c1.052-1.576,2.634-2.443,4.453-2.443c0.569,0,1.129,0.084,1.667,0.249c1.875,0.564,3.877,2.234,3.877,5.223
				c0,2.985-2.001,4.655-3.877,5.222c-0.54,0.165-1.099,0.248-1.659,0.248c-1.823,0-3.407-0.866-4.46-2.443l-2.018-3.027
				L32.603,26.972z"/>
			<path fill="#FEA100" d="M18.316,19.667c-1.036,0-2.082,0.159-3.104,0.471c-4.446,1.344-7.32,5.216-7.32,9.862
				c0,4.644,2.874,8.517,7.32,9.863c4.052,1.226,8.344-0.097,10.964-3.338l-2.891-4.317l-0.545,0.818
				c-1.053,1.577-2.638,2.443-4.459,2.443c-0.562,0-1.123-0.083-1.667-0.248C14.741,34.653,12.74,32.984,12.74,30
				c0-2.989,2.003-4.658,3.877-5.223c0.54-0.165,1.1-0.249,1.663-0.249c1.826,0,3.41,0.868,4.459,2.443l0.541,0.813l2.882-4.322
				C24.208,21.048,21.355,19.667,18.316,19.667z"/>
		</g>
		<path fill="#FEA100" d="M27.671,2.33C12.413,2.33,0,14.743,0,30c0,15.257,12.413,27.67,27.671,27.67
			c15.256,0,27.668-12.413,27.668-27.67C55.339,14.743,42.928,2.33,27.671,2.33z M27.671,54.312
			C14.266,54.312,3.359,43.405,3.359,30c0-13.406,10.907-24.312,24.312-24.312c13.403,0,24.31,10.906,24.31,24.312
			C51.981,43.405,41.075,54.312,27.671,54.312z"/>
	</g>
	<g>
		<g>
			<path fill="#F9F9F9" d="M98.231,18.779c0,0.378-0.076,0.731-0.229,1.062c-0.153,0.331-0.362,0.62-0.627,0.873
				c-0.265,0.249-0.572,0.445-0.925,0.596c-0.353,0.148-0.725,0.222-1.124,0.222c-0.387,0-0.747-0.073-1.085-0.222
				c-0.336-0.15-0.635-0.347-0.895-0.596c-0.258-0.253-0.464-0.542-0.61-0.873c-0.148-0.33-0.222-0.684-0.222-1.062
				c0-0.389,0.073-0.75,0.222-1.085c0.146-0.336,0.352-0.633,0.61-0.887c0.259-0.255,0.558-0.454,0.895-0.596
				c0.338-0.144,0.698-0.213,1.085-0.213c0.399,0,0.771,0.069,1.124,0.213c0.353,0.142,0.66,0.341,0.925,0.596
				c0.265,0.254,0.474,0.551,0.627,0.887C98.155,18.029,98.231,18.391,98.231,18.779z M97.681,23.121v15.852h-4.739V23.121H97.681z"
				/>
			<path fill="#F9F9F9" d="M101.504,38.973V23.121h2.934c0.294,0,0.542,0.067,0.74,0.197c0.2,0.134,0.338,0.334,0.422,0.597
				l0.275,0.918c0.305-0.285,0.619-0.551,0.947-0.795c0.327-0.243,0.674-0.452,1.047-0.62c0.371-0.168,0.773-0.299,1.207-0.396
				c0.432-0.097,0.904-0.146,1.414-0.146c0.866,0,1.635,0.151,2.303,0.451c0.667,0.3,1.229,0.718,1.688,1.254
				c0.457,0.534,0.804,1.172,1.038,1.911c0.236,0.739,0.352,1.539,0.352,2.405v10.075h-4.738V28.897
				c0-0.773-0.178-1.377-0.535-1.812c-0.356-0.433-0.881-0.648-1.575-0.648c-0.519,0-1.007,0.113-1.466,0.338
				c-0.459,0.222-0.898,0.524-1.314,0.9v11.297H101.504z"/>
			<path fill="#F9F9F9" d="M130.363,38.973c-0.297,0-0.541-0.066-0.743-0.198c-0.198-0.134-0.336-0.335-0.419-0.595l-0.367-1.208
				c-0.315,0.337-0.647,0.64-0.994,0.915c-0.346,0.275-0.72,0.514-1.122,0.712c-0.404,0.198-0.836,0.353-1.3,0.459
				s-0.965,0.158-1.506,0.158c-0.825,0-1.59-0.181-2.293-0.551c-0.703-0.364-1.309-0.895-1.818-1.59
				c-0.51-0.691-0.911-1.537-1.2-2.545c-0.291-1.002-0.437-2.146-0.437-3.428c0-1.185,0.162-2.28,0.49-3.296
				c0.324-1.015,0.786-1.891,1.381-2.629c0.599-0.739,1.315-1.317,2.151-1.737c0.834-0.417,1.756-0.627,2.766-0.627
				c0.814,0,1.505,0.12,2.071,0.361c0.565,0.239,1.077,0.553,1.536,0.939v-8.025h4.739v22.884H130.363z M125.564,35.58
				c0.345,0,0.658-0.035,0.938-0.1c0.28-0.069,0.538-0.161,0.774-0.282c0.232-0.124,0.456-0.275,0.664-0.459
				c0.209-0.184,0.415-0.397,0.619-0.643V27.37c-0.367-0.396-0.757-0.676-1.17-0.832c-0.414-0.159-0.848-0.237-1.307-0.237
				c-0.439,0-0.841,0.087-1.208,0.26c-0.364,0.172-0.685,0.45-0.955,0.832c-0.27,0.382-0.481,0.88-0.635,1.491
				c-0.154,0.612-0.229,1.349-0.229,2.219c0,0.834,0.063,1.538,0.183,2.108c0.123,0.57,0.294,1.029,0.512,1.382
				c0.221,0.352,0.484,0.605,0.789,0.757C124.845,35.503,125.185,35.58,125.564,35.58z"/>
			<path fill="#F9F9F9" d="M143.754,22.876c1.049,0,2.009,0.163,2.882,0.488c0.871,0.329,1.617,0.802,2.245,1.423
				c0.629,0.621,1.117,1.383,1.469,2.287c0.352,0.9,0.528,1.923,0.528,3.063c0,0.355-0.016,0.648-0.048,0.87
				c-0.029,0.225-0.085,0.404-0.166,0.536c-0.083,0.131-0.19,0.226-0.327,0.275c-0.141,0.051-0.316,0.076-0.528,0.076h-9.143
				c0.153,1.323,0.554,2.285,1.208,2.881c0.652,0.598,1.493,0.896,2.523,0.896c0.547,0,1.021-0.067,1.42-0.201
				c0.397-0.132,0.752-0.28,1.063-0.441c0.311-0.164,0.596-0.311,0.856-0.444c0.258-0.134,0.533-0.195,0.817-0.195
				c0.378,0,0.663,0.136,0.855,0.411l1.377,1.697c-0.49,0.561-1.019,1.017-1.584,1.366s-1.146,0.628-1.743,0.826
				c-0.596,0.196-1.191,0.337-1.789,0.412c-0.593,0.076-1.163,0.113-1.702,0.113c-1.11,0-2.154-0.181-3.127-0.54
				c-0.973-0.362-1.824-0.9-2.554-1.612c-0.729-0.715-1.305-1.603-1.726-2.659c-0.424-1.064-0.635-2.295-0.635-3.7
				c0-1.062,0.182-2.063,0.542-3.014c0.361-0.945,0.882-1.777,1.56-2.492c0.677-0.71,1.498-1.277,2.46-1.695
				C141.453,23.085,142.541,22.876,143.754,22.876z M143.846,26.147c-0.908,0-1.615,0.257-2.126,0.772
				c-0.509,0.513-0.845,1.257-1.008,2.224h5.914c0-0.377-0.047-0.744-0.144-1.099c-0.097-0.359-0.255-0.676-0.476-0.959
				c-0.218-0.278-0.504-0.505-0.861-0.678C144.787,26.235,144.355,26.147,143.846,26.147z"/>
			<path fill="#F9F9F9" d="M153.599,44.001v-20.88h2.935c0.296,0,0.546,0.067,0.741,0.197c0.2,0.134,0.34,0.334,0.421,0.597
				l0.353,1.162c0.305-0.335,0.631-0.643,0.985-0.918c0.352-0.275,0.729-0.512,1.131-0.709c0.405-0.2,0.836-0.354,1.299-0.468
				c0.464-0.111,0.973-0.169,1.521-0.169c0.826,0,1.591,0.187,2.292,0.551c0.705,0.367,1.312,0.896,1.82,1.59
				c0.511,0.693,0.911,1.543,1.201,2.545c0.292,1.005,0.437,2.144,0.437,3.418c0,1.192-0.167,2.294-0.5,3.304
				c-0.331,1.007-0.795,1.885-1.389,2.627c-0.598,0.744-1.309,1.327-2.14,1.743c-0.833,0.417-1.751,0.625-2.761,0.625
				c-0.826,0-1.52-0.116-2.078-0.35c-0.561-0.235-1.072-0.551-1.528-0.947v6.082H153.599z M161.335,26.438
				c-0.347,0-0.659,0.033-0.942,0.101c-0.28,0.064-0.538,0.16-0.778,0.281c-0.238,0.123-0.459,0.278-0.665,0.467
				c-0.205,0.188-0.408,0.404-0.61,0.648v6.728c0.354,0.399,0.744,0.677,1.161,0.833c0.416,0.159,0.855,0.238,1.314,0.238
				c0.437,0,0.844-0.087,1.207-0.263c0.368-0.171,0.686-0.449,0.955-0.831c0.271-0.382,0.484-0.881,0.636-1.49
				c0.154-0.613,0.229-1.355,0.229-2.232c0-0.834-0.062-1.537-0.185-2.109c-0.122-0.569-0.294-1.033-0.511-1.383
				c-0.219-0.351-0.481-0.605-0.789-0.759C162.052,26.514,161.711,26.438,161.335,26.438z"/>
			<path fill="#F9F9F9" d="M194.568,39.216c-0.755,0-1.419-0.108-1.996-0.329c-0.576-0.214-1.063-0.528-1.453-0.931
				c-0.391-0.401-0.691-0.891-0.894-1.458c-0.202-0.571-0.306-1.208-0.306-1.913v-8.192h-1.346c-0.244,0-0.452-0.078-0.626-0.239
				c-0.174-0.156-0.261-0.388-0.261-0.694V23.61l2.524-0.489l0.929-3.868c0.124-0.487,0.472-0.734,1.044-0.734h2.475v4.634h3.853
				v3.24h-3.853v7.873c0,0.366,0.089,0.669,0.267,0.91c0.179,0.235,0.437,0.356,0.771,0.356c0.174,0,0.317-0.017,0.437-0.052
				c0.116-0.037,0.219-0.074,0.305-0.124c0.087-0.045,0.169-0.084,0.246-0.119c0.074-0.037,0.164-0.055,0.268-0.055
				c0.143,0,0.256,0.035,0.343,0.097c0.089,0.07,0.179,0.172,0.268,0.315L199,37.842c-0.611,0.459-1.3,0.804-2.063,1.029
				C196.171,39.103,195.382,39.216,194.568,39.216z"/>
		</g>
		<g>
			<path fill="#F9F9F9" d="M67.556,22.681c-0.818,0-1.646,0.126-2.458,0.372c-3.521,1.067-5.795,4.13-5.795,7.809
				c0,3.674,2.274,6.742,5.794,7.812c0.809,0.246,1.633,0.37,2.455,0.37c2.444,0,4.722-1.119,6.275-3.076l-2.387-3.564l-0.511,0.767
				c-0.803,1.203-2.009,1.865-3.4,1.865c-0.432,0-0.859-0.067-1.273-0.188c-1.428-0.435-2.956-1.709-2.956-3.984
				c0-2.279,1.528-3.553,2.957-3.984c0.416-0.126,0.842-0.19,1.272-0.19c1.391,0,2.599,0.663,3.4,1.866l0.508,0.765l2.383-3.574
				C72.267,23.795,69.997,22.681,67.556,22.681z"/>
			<path fill="#F9F9F9" d="M67.556,22.681c-0.818,0-1.646,0.126-2.458,0.372c-3.521,1.067-5.795,4.13-5.795,7.809
				c0,3.674,2.274,6.742,5.794,7.812c0.809,0.246,1.633,0.37,2.455,0.37c2.444,0,4.722-1.119,6.275-3.076l-2.387-3.564l-0.511,0.767
				c-0.803,1.203-2.009,1.865-3.4,1.865c-0.432,0-0.859-0.067-1.273-0.188c-1.428-0.435-2.956-1.709-2.956-3.984
				c0-2.279,1.528-3.553,2.957-3.984c0.416-0.126,0.842-0.19,1.272-0.19c1.391,0,2.599,0.663,3.4,1.866l0.508,0.765l2.383-3.574
				C72.267,23.795,69.997,22.681,67.556,22.681z"/>
			<path fill="#F9F9F9" d="M90.436,30.861c0-3.679-2.276-6.741-5.797-7.809c-0.81-0.246-1.634-0.369-2.453-0.369
				c-2.708,0-5.153,1.327-6.701,3.651l-0.616,0.923l-0.021-0.031l-2.418,3.629l2.425,3.641l0.234,0.295l0.396,0.596
				c0.086,0.129,0.174,0.253,0.265,0.377c1.551,2.083,3.897,3.276,6.436,3.276c0.817,0,1.643-0.121,2.457-0.367
				C88.16,37.604,90.436,34.535,90.436,30.861z M83.48,34.846c-0.411,0.121-0.837,0.188-1.267,0.188c-1.392,0-2.6-0.662-3.402-1.865
				l-1.54-2.309l1.54-2.308c0.802-1.203,2.007-1.866,3.396-1.866c0.431,0,0.859,0.064,1.273,0.19c1.431,0.432,2.96,1.705,2.96,3.984
				C86.44,33.142,84.911,34.411,83.48,34.846z"/>
		</g>
		<path fill="#F9F9F9" d="M178.479,22.173c-3.678,0-6.743,2.275-7.811,5.794c-0.245,0.81-0.368,1.635-0.368,2.453
			c0,2.709,1.331,5.152,3.65,6.7l0.923,0.62l-0.032,0.018l3.631,2.421l3.641-2.426l0.294-0.233l0.598-0.399
			c0.129-0.084,0.25-0.171,0.374-0.263c2.084-1.551,3.279-3.899,3.279-6.438c0-0.816-0.124-1.644-0.369-2.455
			C185.221,24.448,182.152,22.173,178.479,22.173z M182.462,29.124c0.126,0.413,0.189,0.841,0.189,1.27
			c0,1.392-0.661,2.6-1.864,3.402l-2.31,1.541l-2.309-1.541c-1.203-0.803-1.866-2.008-1.866-3.396c0-0.431,0.065-0.858,0.19-1.275
			c0.433-1.428,1.705-2.955,3.986-2.955C180.758,26.169,182.03,27.696,182.462,29.124z"/>
	</g>
</g>
</svg>
