<?xml version="1.0" encoding="utf-8"?>
<!-- Generator: Adobe Illustrator 14.0.0, SVG Export Plug-In . SVG Version: 6.00 Build 43363)  -->
<!DOCTYPE svg PUBLIC "-//W3C//DTD SVG 1.1//EN" "http://www.w3.org/Graphics/SVG/1.1/DTD/svg11.dtd">
<svg version="1.1" id="Layer_1" xmlns="http://www.w3.org/2000/svg" xmlns:xlink="http://www.w3.org/1999/xlink" x="0px" y="0px"
	 width="150px" height="60px" viewBox="0 0 150 60" enable-background="new 0 0 150 60" xml:space="preserve">
<g>
	<g>
		<g>
			<path fill="#F9F9F9" d="M42.737,18.257c0,0.396-0.08,0.766-0.24,1.111c-0.16,0.347-0.378,0.649-0.656,0.914
				c-0.277,0.26-0.599,0.466-0.968,0.623c-0.369,0.156-0.759,0.232-1.176,0.232c-0.405,0-0.782-0.076-1.136-0.232
				c-0.352-0.157-0.665-0.363-0.936-0.623c-0.271-0.265-0.486-0.567-0.639-0.914c-0.155-0.345-0.232-0.715-0.232-1.111
				c0-0.407,0.077-0.785,0.232-1.135c0.153-0.352,0.368-0.662,0.639-0.928c0.271-0.267,0.584-0.476,0.936-0.624
				c0.354-0.15,0.731-0.223,1.136-0.223c0.417,0,0.807,0.072,1.176,0.223c0.369,0.148,0.691,0.356,0.968,0.624
				c0.277,0.266,0.496,0.576,0.656,0.928C42.658,17.473,42.737,17.851,42.737,18.257z M42.162,22.801V39.39h-4.959V22.801H42.162z"
				/>
			<path fill="#F9F9F9" d="M46.163,39.39V22.801h3.07c0.308,0,0.567,0.07,0.775,0.207c0.209,0.14,0.354,0.349,0.441,0.624
				l0.288,0.961c0.319-0.298,0.648-0.577,0.991-0.832c0.343-0.254,0.706-0.473,1.096-0.649c0.388-0.176,0.81-0.313,1.263-0.414
				c0.452-0.101,0.946-0.153,1.48-0.153c0.906,0,1.71,0.158,2.41,0.472c0.698,0.313,1.286,0.751,1.767,1.312
				c0.478,0.559,0.841,1.227,1.086,2c0.247,0.773,0.368,1.611,0.368,2.517V39.39h-4.958V28.846c0-0.81-0.186-1.441-0.56-1.896
				c-0.373-0.453-0.922-0.678-1.648-0.678c-0.542,0-1.054,0.119-1.534,0.354c-0.48,0.232-0.94,0.549-1.375,0.942V39.39H46.163z"/>
			<path fill="#F9F9F9" d="M76.364,39.39c-0.311,0-0.566-0.069-0.777-0.207c-0.208-0.141-0.352-0.351-0.438-0.623l-0.384-1.264
				c-0.33,0.353-0.678,0.669-1.041,0.958c-0.362,0.288-0.753,0.537-1.174,0.744c-0.423,0.208-0.875,0.369-1.36,0.48
				c-0.485,0.111-1.009,0.166-1.576,0.166c-0.864,0-1.664-0.189-2.399-0.576c-0.736-0.382-1.37-0.937-1.903-1.664
				c-0.533-0.724-0.953-1.608-1.256-2.663c-0.305-1.049-0.457-2.245-0.457-3.587c0-1.24,0.169-2.387,0.513-3.45
				c0.339-1.062,0.823-1.979,1.445-2.751c0.626-0.774,1.376-1.379,2.251-1.818c0.873-0.436,1.837-0.656,2.894-0.656
				c0.853,0,1.575,0.125,2.167,0.378c0.592,0.25,1.127,0.579,1.608,0.983v-8.398h4.959V39.39H76.364z M71.342,35.84
				c0.361,0,0.689-0.037,0.981-0.104c0.293-0.072,0.563-0.169,0.81-0.295c0.244-0.13,0.478-0.289,0.695-0.48
				c0.219-0.192,0.434-0.416,0.648-0.673v-7.039c-0.384-0.414-0.792-0.708-1.225-0.871c-0.433-0.167-0.887-0.248-1.367-0.248
				c-0.46,0-0.88,0.091-1.264,0.271c-0.381,0.18-0.716,0.471-1,0.871c-0.282,0.399-0.504,0.92-0.665,1.561
				c-0.161,0.641-0.239,1.411-0.239,2.322c0,0.872,0.065,1.609,0.191,2.206c0.129,0.597,0.308,1.077,0.536,1.446
				c0.231,0.367,0.507,0.634,0.826,0.792C70.589,35.759,70.944,35.84,71.342,35.84z"/>
			<path fill="#F9F9F9" d="M90.377,22.545c1.098,0,2.102,0.17,3.016,0.511c0.912,0.344,1.692,0.839,2.35,1.489
				c0.658,0.65,1.169,1.447,1.537,2.393c0.368,0.942,0.553,2.012,0.553,3.206c0,0.372-0.016,0.679-0.05,0.911
				c-0.031,0.235-0.089,0.423-0.174,0.562c-0.087,0.137-0.199,0.235-0.342,0.288c-0.147,0.053-0.332,0.079-0.553,0.079h-9.567
				c0.16,1.385,0.579,2.392,1.264,3.015c0.683,0.626,1.563,0.938,2.641,0.938c0.572,0,1.069-0.07,1.486-0.21
				c0.416-0.139,0.787-0.294,1.113-0.463c0.325-0.171,0.624-0.324,0.896-0.465c0.27-0.14,0.558-0.204,0.855-0.204
				c0.396,0,0.694,0.142,0.895,0.431l1.441,1.775c-0.513,0.587-1.066,1.064-1.657,1.43c-0.592,0.366-1.199,0.657-1.824,0.865
				c-0.624,0.205-1.247,0.353-1.873,0.431c-0.62,0.08-1.217,0.119-1.781,0.119c-1.162,0-2.254-0.189-3.272-0.565
				c-1.018-0.379-1.909-0.942-2.672-1.688c-0.762-0.748-1.365-1.677-1.806-2.782c-0.444-1.114-0.665-2.402-0.665-3.873
				c0-1.111,0.19-2.159,0.567-3.154c0.378-0.989,0.923-1.86,1.632-2.608c0.708-0.743,1.568-1.337,2.575-1.774
				C87.97,22.763,89.108,22.545,90.377,22.545z M90.473,25.968c-0.95,0-1.69,0.269-2.225,0.809
				c-0.533,0.537-0.884,1.315-1.055,2.327h6.189c0-0.394-0.049-0.778-0.15-1.149c-0.101-0.376-0.267-0.708-0.498-1.004
				c-0.228-0.291-0.527-0.528-0.901-0.709C91.458,26.06,91.007,25.968,90.473,25.968z"/>
			<path fill="#F9F9F9" d="M100.68,44.652V22.801h3.071c0.31,0,0.571,0.07,0.775,0.207c0.21,0.14,0.356,0.349,0.44,0.624
				l0.369,1.216c0.318-0.351,0.66-0.672,1.031-0.96c0.368-0.288,0.764-0.536,1.184-0.742c0.424-0.209,0.875-0.371,1.359-0.489
				c0.485-0.117,1.018-0.177,1.592-0.177c0.864,0,1.665,0.195,2.398,0.576c0.738,0.384,1.373,0.938,1.905,1.664
				c0.534,0.726,0.953,1.615,1.257,2.664c0.306,1.052,0.457,2.243,0.457,3.577c0,1.248-0.175,2.401-0.523,3.458
				c-0.347,1.054-0.832,1.973-1.453,2.749c-0.626,0.779-1.369,1.389-2.239,1.824c-0.872,0.437-1.832,0.654-2.889,0.654
				c-0.865,0-1.591-0.122-2.175-0.366c-0.587-0.246-1.123-0.576-1.6-0.991v6.365H100.68z M108.775,26.272
				c-0.362,0-0.689,0.035-0.985,0.105c-0.294,0.067-0.563,0.168-0.814,0.294c-0.25,0.129-0.48,0.292-0.696,0.489
				c-0.215,0.197-0.428,0.423-0.639,0.678v7.041c0.371,0.418,0.778,0.708,1.215,0.872c0.436,0.166,0.896,0.249,1.376,0.249
				c0.456,0,0.883-0.091,1.263-0.274c0.386-0.18,0.718-0.471,1-0.87c0.284-0.399,0.507-0.922,0.665-1.56
				c0.161-0.642,0.24-1.419,0.24-2.336c0-0.873-0.064-1.608-0.193-2.208c-0.128-0.596-0.308-1.081-0.534-1.447
				c-0.229-0.367-0.504-0.634-0.826-0.794C109.526,26.352,109.169,26.272,108.775,26.272z"/>
			<path fill="#F9F9F9" d="M143.555,39.645c-0.79,0-1.485-0.113-2.089-0.345c-0.604-0.224-1.112-0.553-1.521-0.974
				c-0.409-0.42-0.724-0.933-0.936-1.526c-0.211-0.598-0.319-1.264-0.319-2.002v-8.573h-1.408c-0.256,0-0.474-0.082-0.655-0.25
				c-0.183-0.164-0.273-0.406-0.273-0.727v-1.935l2.643-0.512l0.972-4.048c0.13-0.51,0.493-0.768,1.092-0.768h2.59v4.849h4.032
				v3.391h-4.032v8.239c0,0.384,0.094,0.7,0.279,0.952c0.187,0.247,0.457,0.373,0.808,0.373c0.182,0,0.332-0.017,0.457-0.054
				c0.121-0.039,0.229-0.078,0.318-0.13c0.091-0.047,0.177-0.088,0.258-0.125c0.077-0.038,0.172-0.057,0.279-0.057
				c0.149,0,0.269,0.036,0.359,0.101c0.093,0.074,0.187,0.181,0.28,0.33l1.504,2.352c-0.64,0.48-1.36,0.842-2.159,1.077
				C145.231,39.525,144.406,39.645,143.555,39.645z"/>
		</g>
		<g>
			<path fill="#F9F9F9" d="M10.636,22.34c-0.856,0-1.723,0.132-2.572,0.389C4.38,23.847,2,27.052,2,30.901
				c0,3.845,2.38,7.056,6.064,8.175c0.847,0.258,1.709,0.388,2.569,0.388c2.558,0,4.941-1.172,6.566-3.22l-2.498-3.73l-0.535,0.803
				c-0.84,1.259-2.103,1.952-3.559,1.952c-0.452,0-0.898-0.07-1.332-0.197c-1.495-0.455-3.093-1.789-3.093-4.17
				c0-2.385,1.599-3.718,3.094-4.169c0.436-0.132,0.881-0.2,1.332-0.2c1.456,0,2.72,0.694,3.559,1.953l0.532,0.8l2.494-3.74
				C15.566,23.506,13.19,22.34,10.636,22.34z"/>
			<path fill="#F9F9F9" d="M10.636,22.34c-0.856,0-1.723,0.132-2.572,0.389C4.38,23.847,2,27.052,2,30.901
				c0,3.845,2.38,7.056,6.064,8.175c0.847,0.258,1.709,0.388,2.569,0.388c2.558,0,4.941-1.172,6.566-3.22l-2.498-3.73l-0.535,0.803
				c-0.84,1.259-2.103,1.952-3.559,1.952c-0.452,0-0.898-0.07-1.332-0.197c-1.495-0.455-3.093-1.789-3.093-4.17
				c0-2.385,1.599-3.718,3.094-4.169c0.436-0.132,0.881-0.2,1.332-0.2c1.456,0,2.72,0.694,3.559,1.953l0.532,0.8l2.494-3.74
				C15.566,23.506,13.19,22.34,10.636,22.34z"/>
			<path fill="#F9F9F9" d="M34.58,30.901c0-3.85-2.382-7.055-6.066-8.172c-0.848-0.257-1.71-0.386-2.567-0.386
				c-2.834,0-5.393,1.389-7.013,3.821l-0.645,0.966l-0.022-0.033l-2.531,3.797l2.538,3.81l0.245,0.309l0.415,0.624
				c0.09,0.135,0.183,0.265,0.277,0.394c1.624,2.181,4.079,3.429,6.735,3.429c0.855,0,1.72-0.126,2.571-0.384
				C32.198,37.957,34.58,34.746,34.58,30.901z M27.3,35.071c-0.43,0.127-0.875,0.197-1.325,0.197c-1.457,0-2.721-0.693-3.56-1.952
				L20.803,30.9l1.612-2.415c0.839-1.259,2.101-1.953,3.553-1.953c0.451,0,0.899,0.068,1.332,0.2
				c1.498,0.452,3.098,1.784,3.098,4.169C30.398,33.288,28.798,34.616,27.3,35.071z"/>
		</g>
		<path fill="#F9F9F9" d="M126.718,21.809c-3.849,0-7.057,2.381-8.174,6.063c-0.257,0.847-0.386,1.711-0.386,2.567
			c0,2.835,1.394,5.392,3.82,7.012l0.966,0.649l-0.033,0.018l3.8,2.534l3.81-2.539l0.308-0.244l0.625-0.418
			c0.135-0.088,0.262-0.179,0.392-0.274c2.181-1.623,3.432-4.081,3.432-6.737c0-0.854-0.13-1.72-0.386-2.569
			C133.772,24.19,130.562,21.809,126.718,21.809z M130.885,29.083c0.132,0.432,0.199,0.88,0.199,1.328
			c0,1.457-0.692,2.721-1.951,3.561l-2.417,1.612l-2.416-1.612c-1.259-0.84-1.953-2.102-1.953-3.555
			c0-0.451,0.068-0.898,0.199-1.334c0.453-1.494,1.784-3.093,4.172-3.093C129.102,25.991,130.434,27.589,130.885,29.083z"/>
	</g>
</g>
</svg>
